<svg id="mermaid-af191c56-ae0d-4afc-bac9-07423ec83918" width="100%" xmlns="http://www.w3.org/2000/svg" class="flowchart" style="max-width: 1892.125px;" viewBox="0 0 1892.125 624" role="graphics-document document" aria-roledescription="flowchart-v2"><style>#mermaid-af191c56-ae0d-4afc-bac9-07423ec83918{font-family:"trebuchet ms",verdana,arial,sans-serif;font-size:16px;fill:#ccc;}#mermaid-af191c56-ae0d-4afc-bac9-07423ec83918 .error-icon{fill:#a44141;}#mermaid-af191c56-ae0d-4afc-bac9-07423ec83918 .error-text{fill:#ddd;stroke:#ddd;}#mermaid-af191c56-ae0d-4afc-bac9-07423ec83918 .edge-thickness-normal{stroke-width:1px;}#mermaid-af191c56-ae0d-4afc-bac9-07423ec83918 .edge-thickness-thick{stroke-width:3.5px;}#mermaid-af191c56-ae0d-4afc-bac9-07423ec83918 .edge-pattern-solid{stroke-dasharray:0;}#mermaid-af191c56-ae0d-4afc-bac9-07423ec83918 .edge-thickness-invisible{stroke-width:0;fill:none;}#mermaid-af191c56-ae0d-4afc-bac9-07423ec83918 .edge-pattern-dashed{stroke-dasharray:3;}#mermaid-af191c56-ae0d-4afc-bac9-07423ec83918 .edge-pattern-dotted{stroke-dasharray:2;}#mermaid-af191c56-ae0d-4afc-bac9-07423ec83918 .marker{fill:lightgrey;stroke:lightgrey;}#mermaid-af191c56-ae0d-4afc-bac9-07423ec83918 .marker.cross{stroke:lightgrey;}#mermaid-af191c56-ae0d-4afc-bac9-07423ec83918 svg{font-family:"trebuchet ms",verdana,arial,sans-serif;font-size:16px;}#mermaid-af191c56-ae0d-4afc-bac9-07423ec83918 p{margin:0;}#mermaid-af191c56-ae0d-4afc-bac9-07423ec83918 .label{font-family:"trebuchet ms",verdana,arial,sans-serif;color:#ccc;}#mermaid-af191c56-ae0d-4afc-bac9-07423ec83918 .cluster-label text{fill:#F9FFFE;}#mermaid-af191c56-ae0d-4afc-bac9-07423ec83918 .cluster-label span{color:#F9FFFE;}#mermaid-af191c56-ae0d-4afc-bac9-07423ec83918 .cluster-label span p{background-color:transparent;}#mermaid-af191c56-ae0d-4afc-bac9-07423ec83918 .label text,#mermaid-af191c56-ae0d-4afc-bac9-07423ec83918 span{fill:#ccc;color:#ccc;}#mermaid-af191c56-ae0d-4afc-bac9-07423ec83918 .node rect,#mermaid-af191c56-ae0d-4afc-bac9-07423ec83918 .node circle,#mermaid-af191c56-ae0d-4afc-bac9-07423ec83918 .node ellipse,#mermaid-af191c56-ae0d-4afc-bac9-07423ec83918 .node polygon,#mermaid-af191c56-ae0d-4afc-bac9-07423ec83918 .node path{fill:#1f2020;stroke:#ccc;stroke-width:1px;}#mermaid-af191c56-ae0d-4afc-bac9-07423ec83918 .rough-node .label text,#mermaid-af191c56-ae0d-4afc-bac9-07423ec83918 .node .label text{text-anchor:middle;}#mermaid-af191c56-ae0d-4afc-bac9-07423ec83918 .node .katex path{fill:#000;stroke:#000;stroke-width:1px;}#mermaid-af191c56-ae0d-4afc-bac9-07423ec83918 .node .label{text-align:center;}#mermaid-af191c56-ae0d-4afc-bac9-07423ec83918 .node.clickable{cursor:pointer;}#mermaid-af191c56-ae0d-4afc-bac9-07423ec83918 .arrowheadPath{fill:lightgrey;}#mermaid-af191c56-ae0d-4afc-bac9-07423ec83918 .edgePath .path{stroke:lightgrey;stroke-width:2.0px;}#mermaid-af191c56-ae0d-4afc-bac9-07423ec83918 .flowchart-link{stroke:lightgrey;fill:none;}#mermaid-af191c56-ae0d-4afc-bac9-07423ec83918 .edgeLabel{background-color:hsl(0, 0%, 34.4117647059%);text-align:center;}#mermaid-af191c56-ae0d-4afc-bac9-07423ec83918 .edgeLabel p{background-color:hsl(0, 0%, 34.4117647059%);}#mermaid-af191c56-ae0d-4afc-bac9-07423ec83918 .edgeLabel rect{opacity:0.5;background-color:hsl(0, 0%, 34.4117647059%);fill:hsl(0, 0%, 34.4117647059%);}#mermaid-af191c56-ae0d-4afc-bac9-07423ec83918 .labelBkg{background-color:rgba(87.75, 87.75, 87.75, 0.5);}#mermaid-af191c56-ae0d-4afc-bac9-07423ec83918 .cluster rect{fill:hsl(180, 1.5873015873%, 28.3529411765%);stroke:rgba(255, 255, 255, 0.25);stroke-width:1px;}#mermaid-af191c56-ae0d-4afc-bac9-07423ec83918 .cluster text{fill:#F9FFFE;}#mermaid-af191c56-ae0d-4afc-bac9-07423ec83918 .cluster span{color:#F9FFFE;}#mermaid-af191c56-ae0d-4afc-bac9-07423ec83918 div.mermaidTooltip{position:absolute;text-align:center;max-width:200px;padding:2px;font-family:"trebuchet ms",verdana,arial,sans-serif;font-size:12px;background:hsl(20, 1.5873015873%, 12.3529411765%);border:1px solid rgba(255, 255, 255, 0.25);border-radius:2px;pointer-events:none;z-index:100;}#mermaid-af191c56-ae0d-4afc-bac9-07423ec83918 .flowchartTitleText{text-anchor:middle;font-size:18px;fill:#ccc;}#mermaid-af191c56-ae0d-4afc-bac9-07423ec83918 :root{--mermaid-font-family:"trebuchet ms",verdana,arial,sans-serif;}</style><g><marker id="mermaid-af191c56-ae0d-4afc-bac9-07423ec83918_flowchart-v2-pointEnd" class="marker flowchart-v2" viewBox="0 0 10 10" refX="5" refY="5" markerUnits="userSpaceOnUse" markerWidth="8" markerHeight="8" orient="auto"><path d="M 0 0 L 10 5 L 0 10 z" class="arrowMarkerPath" style="stroke-width: 1; stroke-dasharray: 1, 0;"></path></marker><marker id="mermaid-af191c56-ae0d-4afc-bac9-07423ec83918_flowchart-v2-pointStart" class="marker flowchart-v2" viewBox="0 0 10 10" refX="4.5" refY="5" markerUnits="userSpaceOnUse" markerWidth="8" markerHeight="8" orient="auto"><path d="M 0 5 L 10 10 L 10 0 z" class="arrowMarkerPath" style="stroke-width: 1; stroke-dasharray: 1, 0;"></path></marker><marker id="mermaid-af191c56-ae0d-4afc-bac9-07423ec83918_flowchart-v2-circleEnd" class="marker flowchart-v2" viewBox="0 0 10 10" refX="11" refY="5" markerUnits="userSpaceOnUse" markerWidth="11" markerHeight="11" orient="auto"><circle cx="5" cy="5" r="5" class="arrowMarkerPath" style="stroke-width: 1; stroke-dasharray: 1, 0;"></circle></marker><marker id="mermaid-af191c56-ae0d-4afc-bac9-07423ec83918_flowchart-v2-circleStart" class="marker flowchart-v2" viewBox="0 0 10 10" refX="-1" refY="5" markerUnits="userSpaceOnUse" markerWidth="11" markerHeight="11" orient="auto"><circle cx="5" cy="5" r="5" class="arrowMarkerPath" style="stroke-width: 1; stroke-dasharray: 1, 0;"></circle></marker><marker id="mermaid-af191c56-ae0d-4afc-bac9-07423ec83918_flowchart-v2-crossEnd" class="marker cross flowchart-v2" viewBox="0 0 11 11" refX="12" refY="5.2" markerUnits="userSpaceOnUse" markerWidth="11" markerHeight="11" orient="auto"><path d="M 1,1 l 9,9 M 10,1 l -9,9" class="arrowMarkerPath" style="stroke-width: 2; stroke-dasharray: 1, 0;"></path></marker><marker id="mermaid-af191c56-ae0d-4afc-bac9-07423ec83918_flowchart-v2-crossStart" class="marker cross flowchart-v2" viewBox="0 0 11 11" refX="-1" refY="5.2" markerUnits="userSpaceOnUse" markerWidth="11" markerHeight="11" orient="auto"><path d="M 1,1 l 9,9 M 10,1 l -9,9" class="arrowMarkerPath" style="stroke-width: 2; stroke-dasharray: 1, 0;"></path></marker><g class="root"><g class="clusters"><g class="cluster " id="Graph_and_APIs" data-look="classic"><rect style="" x="881.765625" y="8" width="289.359375" height="436"></rect><g class="cluster-label " transform="translate(968.828125, 8)"><foreignObject width="115.234375" height="24"><div xmlns="http://www.w3.org/1999/xhtml" style="display: table-cell; white-space: nowrap; line-height: 1.5; max-width: 200px; text-align: center;"><span class="nodeLabel "><p>Graph_and_APIs</p></span></div></foreignObject></g></g></g><g class="edgePaths"><path d="M99.797,236L103.964,236C108.13,236,116.464,236,122.714,236C128.964,236,133.13,236,136.63,236C140.13,236,142.964,236,144.38,236L145.797,236" id="L_U_DC_0" class=" edge-thickness-normal edge-pattern-solid edge-thickness-normal edge-pattern-solid flowchart-link" style="" marker-end="url(#mermaid-af191c56-ae0d-4afc-bac9-07423ec83918_flowchart-v2-pointEnd)"></path><path d="M358.203,236L367.77,236C377.336,236,396.469,236,410.818,236C425.168,236,434.734,236,443.634,236C452.534,236,460.767,236,464.883,236L469,236" id="L_DC_AML_1" class=" edge-thickness-normal edge-pattern-solid edge-thickness-normal edge-pattern-solid flowchart-link" style="" marker-end="url(#mermaid-af191c56-ae0d-4afc-bac9-07423ec83918_flowchart-v2-pointEnd)"></path><path d="M615.708,209L644.576,184C673.444,159,731.179,109,775.522,84C819.865,59,850.815,59,868.486,59.167C886.156,59.334,890.547,59.668,894.273,59.951C897.999,60.234,901.06,60.467,902.59,60.583L904.121,60.7" id="L_AML_NEO_2" class=" edge-thickness-normal edge-pattern-solid edge-thickness-normal edge-pattern-solid flowchart-link" style="" marker-end="url(#mermaid-af191c56-ae0d-4afc-bac9-07423ec83918_flowchart-v2-pointEnd)"></path><path d="M637.592,209L662.812,196.167C688.033,183.333,738.473,157.667,779.169,144.833C819.865,132,850.815,132,870.596,133.25C890.378,134.5,898.989,137,906.961,139.314C914.933,141.628,922.264,143.757,925.93,144.821L929.596,145.885" id="L_AML_YENTE_3" class=" edge-thickness-normal edge-pattern-solid edge-thickness-normal edge-pattern-solid flowchart-link" style="" marker-end="url(#mermaid-af191c56-ae0d-4afc-bac9-07423ec83918_flowchart-v2-pointEnd)"></path><path d="M696.063,236L711.538,236C727.013,236,757.964,236,788.914,236C819.865,236,850.815,236,870.596,237.25C890.378,238.5,898.989,241,906.961,243.314C914.933,245.628,922.264,247.757,925.93,248.821L929.596,249.885" id="L_AML_OS_4" class=" edge-thickness-normal edge-pattern-solid edge-thickness-normal edge-pattern-solid flowchart-link" style="" marker-end="url(#mermaid-af191c56-ae0d-4afc-bac9-07423ec83918_flowchart-v2-pointEnd)"></path><path d="M637.592,263L662.812,275.833C688.033,288.667,738.473,314.333,779.169,327.167C819.865,340,850.815,340,870.596,341.25C890.378,342.5,898.989,345,906.961,347.314C914.933,349.628,922.264,351.757,925.93,352.821L929.596,353.885" id="L_AML_OSINT_5" class=" edge-thickness-normal edge-pattern-solid edge-thickness-normal edge-pattern-solid flowchart-link" style="" marker-end="url(#mermaid-af191c56-ae0d-4afc-bac9-07423ec83918_flowchart-v2-pointEnd)"></path><path d="M933.437,97L924.825,99.5C916.213,102,898.989,107,874.902,109.5C850.815,112,819.865,112,791.066,120.083C762.267,128.167,735.621,144.333,709.544,160.154C683.467,175.975,657.961,191.45,645.207,199.188L632.454,206.925" id="L_NEO_AML_6" class=" edge-thickness-normal edge-pattern-solid edge-thickness-normal edge-pattern-solid flowchart-link" style="" marker-end="url(#mermaid-af191c56-ae0d-4afc-bac9-07423ec83918_flowchart-v2-pointEnd)"></path><path d="M933.437,201L924.825,203.5C916.213,206,898.989,211,874.902,213.5C850.815,216,819.865,216,796.652,216.757C773.439,217.514,757.964,219.029,743.152,220.478C728.34,221.928,714.192,223.312,707.118,224.004L700.043,224.696" id="L_YENTE_AML_7" class=" edge-thickness-normal edge-pattern-solid edge-thickness-normal edge-pattern-solid flowchart-link" style="" marker-end="url(#mermaid-af191c56-ae0d-4afc-bac9-07423ec83918_flowchart-v2-pointEnd)"></path><path d="M933.437,305L924.825,307.5C916.213,310,898.989,315,874.902,317.5C850.815,320,819.865,320,792.832,315.25C765.799,310.5,742.685,301,720.187,291.753C697.688,282.507,675.807,273.514,664.866,269.017L653.925,264.521" id="L_OS_AML_8" class=" edge-thickness-normal edge-pattern-solid edge-thickness-normal edge-pattern-solid flowchart-link" style="" marker-end="url(#mermaid-af191c56-ae0d-4afc-bac9-07423ec83918_flowchart-v2-pointEnd)"></path><path d="M931.125,395.836L922.898,397.03C914.672,398.224,898.219,400.612,874.517,401.806C850.815,403,819.865,403,790.111,391.333C760.358,379.667,731.801,356.333,703.761,333.422C675.721,310.51,648.197,288.021,634.435,276.776L620.673,265.531" id="L_OSINT_AML_9" class=" edge-thickness-normal edge-pattern-solid edge-thickness-normal edge-pattern-solid flowchart-link" style="" marker-end="url(#mermaid-af191c56-ae0d-4afc-bac9-07423ec83918_flowchart-v2-pointEnd)"></path><path d="M602.865,263L633.873,308.667C664.881,354.333,726.898,445.667,773.381,491.333C819.865,537,850.815,537,870.421,537C890.027,537,898.289,537,905.884,537C913.479,537,920.408,537,923.872,537L927.336,537" id="L_AML_RISK_10" class=" edge-thickness-normal edge-pattern-solid edge-thickness-normal edge-pattern-solid flowchart-link" style="" marker-end="url(#mermaid-af191c56-ae0d-4afc-bac9-07423ec83918_flowchart-v2-pointEnd)"></path><path d="M1101.567,510L1113.16,505.833C1124.753,501.667,1147.939,493.333,1173.656,489.167C1199.372,485,1227.62,485,1250.419,485C1273.219,485,1290.57,485,1307.255,485C1323.94,485,1339.958,485,1347.967,485L1355.977,485" id="L_RISK_FD_11" class=" edge-thickness-normal edge-pattern-solid edge-thickness-normal edge-pattern-solid flowchart-link" style="" marker-end="url(#mermaid-af191c56-ae0d-4afc-bac9-07423ec83918_flowchart-v2-pointEnd)"></path><path d="M1101.567,564L1113.16,568.167C1124.753,572.333,1147.939,580.667,1173.656,584.833C1199.372,589,1227.62,589,1248.805,589C1269.991,589,1284.115,589,1297.572,589C1311.029,589,1323.819,589,1330.214,589L1336.609,589" id="L_RISK_REJ_12" class=" edge-thickness-normal edge-pattern-solid edge-thickness-normal edge-pattern-solid flowchart-link" style="" marker-end="url(#mermaid-af191c56-ae0d-4afc-bac9-07423ec83918_flowchart-v2-pointEnd)"></path><path d="M1555.617,485L1563.012,485C1570.406,485,1585.195,485,1594.673,485C1604.151,485,1608.318,485,1611.818,485C1615.318,485,1618.151,485,1619.568,485L1620.984,485" id="L_FD_EMAIL1_13" class=" edge-thickness-normal edge-pattern-solid edge-thickness-normal edge-pattern-solid flowchart-link" style="" marker-end="url(#mermaid-af191c56-ae0d-4afc-bac9-07423ec83918_flowchart-v2-pointEnd)"></path><path d="M1574.984,589L1579.151,589C1583.318,589,1591.651,589,1601.511,589C1611.371,589,1622.758,589,1633.478,589C1644.198,589,1654.251,589,1659.278,589L1664.305,589" id="L_REJ_EMAIL2_14" class=" edge-thickness-normal edge-pattern-solid edge-thickness-normal edge-pattern-solid flowchart-link" style="" marker-end="url(#mermaid-af191c56-ae0d-4afc-bac9-07423ec83918_flowchart-v2-pointEnd)"></path></g><g class="edgeLabels"><g class="edgeLabel"><g class="label" transform="translate(0, 0)"><foreignObject width="0" height="0"><div xmlns="http://www.w3.org/1999/xhtml" class="labelBkg" style="display: table-cell; white-space: nowrap; line-height: 1.5; max-width: 200px; text-align: center;"><span class="edgeLabel "></span></div></foreignObject></g></g><g class="edgeLabel" transform="translate(415.6015625, 236)"><g class="label" transform="translate(-32.3984375, -12)"><foreignObject width="64.796875" height="24"><div xmlns="http://www.w3.org/1999/xhtml" class="labelBkg" style="display: table-cell; white-space: nowrap; line-height: 1.5; max-width: 200px; text-align: center;"><span class="edgeLabel "><p>KYC data</p></span></div></foreignObject></g></g><g class="edgeLabel"><g class="label" transform="translate(0, 0)"><foreignObject width="0" height="0"><div xmlns="http://www.w3.org/1999/xhtml" class="labelBkg" style="display: table-cell; white-space: nowrap; line-height: 1.5; max-width: 200px; text-align: center;"><span class="edgeLabel "></span></div></foreignObject></g></g><g class="edgeLabel"><g class="label" transform="translate(0, 0)"><foreignObject width="0" height="0"><div xmlns="http://www.w3.org/1999/xhtml" class="labelBkg" style="display: table-cell; white-space: nowrap; line-height: 1.5; max-width: 200px; text-align: center;"><span class="edgeLabel "></span></div></foreignObject></g></g><g class="edgeLabel"><g class="label" transform="translate(0, 0)"><foreignObject width="0" height="0"><div xmlns="http://www.w3.org/1999/xhtml" class="labelBkg" style="display: table-cell; white-space: nowrap; line-height: 1.5; max-width: 200px; text-align: center;"><span class="edgeLabel "></span></div></foreignObject></g></g><g class="edgeLabel"><g class="label" transform="translate(0, 0)"><foreignObject width="0" height="0"><div xmlns="http://www.w3.org/1999/xhtml" class="labelBkg" style="display: table-cell; white-space: nowrap; line-height: 1.5; max-width: 200px; text-align: center;"><span class="edgeLabel "></span></div></foreignObject></g></g><g class="edgeLabel"><g class="label" transform="translate(0, 0)"><foreignObject width="0" height="0"><div xmlns="http://www.w3.org/1999/xhtml" class="labelBkg" style="display: table-cell; white-space: nowrap; line-height: 1.5; max-width: 200px; text-align: center;"><span class="edgeLabel "></span></div></foreignObject></g></g><g class="edgeLabel"><g class="label" transform="translate(0, 0)"><foreignObject width="0" height="0"><div xmlns="http://www.w3.org/1999/xhtml" class="labelBkg" style="display: table-cell; white-space: nowrap; line-height: 1.5; max-width: 200px; text-align: center;"><span class="edgeLabel "></span></div></foreignObject></g></g><g class="edgeLabel"><g class="label" transform="translate(0, 0)"><foreignObject width="0" height="0"><div xmlns="http://www.w3.org/1999/xhtml" class="labelBkg" style="display: table-cell; white-space: nowrap; line-height: 1.5; max-width: 200px; text-align: center;"><span class="edgeLabel "></span></div></foreignObject></g></g><g class="edgeLabel"><g class="label" transform="translate(0, 0)"><foreignObject width="0" height="0"><div xmlns="http://www.w3.org/1999/xhtml" class="labelBkg" style="display: table-cell; white-space: nowrap; line-height: 1.5; max-width: 200px; text-align: center;"><span class="edgeLabel "></span></div></foreignObject></g></g><g class="edgeLabel" transform="translate(788.9140625, 537)"><g class="label" transform="translate(-67.8515625, -12)"><foreignObject width="135.703125" height="24"><div xmlns="http://www.w3.org/1999/xhtml" class="labelBkg" style="display: table-cell; white-space: nowrap; line-height: 1.5; max-width: 200px; text-align: center;"><span class="edgeLabel "><p>Findings &amp; Context</p></span></div></foreignObject></g></g><g class="edgeLabel" transform="translate(1255.8671875, 485)"><g class="label" transform="translate(-59.7421875, -12)"><foreignObject width="119.484375" height="24"><div xmlns="http://www.w3.org/1999/xhtml" class="labelBkg" style="display: table-cell; white-space: nowrap; line-height: 1.5; max-width: 200px; text-align: center;"><span class="edgeLabel "><p>Score &amp; Decision</p></span></div></foreignObject></g></g><g class="edgeLabel" transform="translate(1255.8671875, 589)"><g class="label" transform="translate(-59.7421875, -12)"><foreignObject width="119.484375" height="24"><div xmlns="http://www.w3.org/1999/xhtml" class="labelBkg" style="display: table-cell; white-space: nowrap; line-height: 1.5; max-width: 200px; text-align: center;"><span class="edgeLabel "><p>Score &amp; Decision</p></span></div></foreignObject></g></g><g class="edgeLabel"><g class="label" transform="translate(0, 0)"><foreignObject width="0" height="0"><div xmlns="http://www.w3.org/1999/xhtml" class="labelBkg" style="display: table-cell; white-space: nowrap; line-height: 1.5; max-width: 200px; text-align: center;"><span class="edgeLabel "></span></div></foreignObject></g></g><g class="edgeLabel"><g class="label" transform="translate(0, 0)"><foreignObject width="0" height="0"><div xmlns="http://www.w3.org/1999/xhtml" class="labelBkg" style="display: table-cell; white-space: nowrap; line-height: 1.5; max-width: 200px; text-align: center;"><span class="edgeLabel "></span></div></foreignObject></g></g></g><g class="nodes"><g class="node default  " id="flowchart-U-34" transform="translate(53.8984375, 236)"><rect class="basic label-container" style="" data-id="abc" data-et="node" x="-45.8984375" y="-27" width="91.796875" height="54"></rect><g class="label" style="" transform="translate(-15.8984375, -12)"><rect></rect><foreignObject width="31.796875" height="24"><div xmlns="http://www.w3.org/1999/xhtml" style="display: table-cell; white-space: nowrap; line-height: 1.5; max-width: 200px; text-align: center;"><span class="nodeLabel "><p>User</p></span></div></foreignObject></g></g><g class="node default  " id="flowchart-DC-35" transform="translate(254, 236)"><rect class="basic label-container" style="" data-id="abc" data-et="node" x="-104.203125" y="-27" width="208.40625" height="54"></rect><g class="label" style="" transform="translate(-74.203125, -12)"><rect></rect><foreignObject width="148.40625" height="24"><div xmlns="http://www.w3.org/1999/xhtml" style="display: table-cell; white-space: nowrap; line-height: 1.5; max-width: 200px; text-align: center;"><span class="nodeLabel "><p>Data Collector Agent</p></span></div></foreignObject></g></g><g class="node default  " id="flowchart-AML-37" transform="translate(584.53125, 236)"><rect class="basic label-container" style="" data-id="abc" data-et="node" x="-111.53125" y="-27" width="223.0625" height="54"></rect><g class="label" style="" transform="translate(-81.53125, -12)"><rect></rect><foreignObject width="163.0625" height="24"><div xmlns="http://www.w3.org/1999/xhtml" style="display: table-cell; white-space: nowrap; line-height: 1.5; max-width: 200px; text-align: center;"><span class="nodeLabel "><p>AML Investigator Agent</p></span></div></foreignObject></g></g><g class="node default  " id="flowchart-NEO-38" transform="translate(1026.4453125, 70)"><rect class="basic label-container" style="" data-id="abc" data-et="node" x="-118.3359375" y="-27" width="236.671875" height="54"></rect><g class="label" style="" transform="translate(-88.3359375, -12)"><rect></rect><foreignObject width="176.671875" height="24"><div xmlns="http://www.w3.org/1999/xhtml" style="display: table-cell; white-space: nowrap; line-height: 1.5; max-width: 200px; text-align: center;"><span class="nodeLabel "><p>Neo4j ICIJ Offshore Data</p></span></div></foreignObject></g></g><g class="node default  " id="flowchart-YENTE-39" transform="translate(1026.4453125, 174)"><rect class="basic label-container" style="" data-id="abc" data-et="node" x="-119.6796875" y="-27" width="239.359375" height="54"></rect><g class="label" style="" transform="translate(-89.6796875, -12)"><rect></rect><foreignObject width="179.359375" height="24"><div xmlns="http://www.w3.org/1999/xhtml" style="display: table-cell; white-space: nowrap; line-height: 1.5; max-width: 200px; text-align: center;"><span class="nodeLabel "><p>Local Yente ICIJ Offshore</p></span></div></foreignObject></g></g><g class="node default  " id="flowchart-OS-40" transform="translate(1026.4453125, 278)"><rect class="basic label-container" style="" data-id="abc" data-et="node" x="-117.953125" y="-27" width="235.90625" height="54"></rect><g class="label" style="" transform="translate(-87.953125, -12)"><rect></rect><foreignObject width="175.90625" height="24"><div xmlns="http://www.w3.org/1999/xhtml" style="display: table-cell; white-space: nowrap; line-height: 1.5; max-width: 200px; text-align: center;"><span class="nodeLabel "><p>OpenSanctions Yente API</p></span></div></foreignObject></g></g><g class="node default  " id="flowchart-OSINT-41" transform="translate(1026.4453125, 382)"><rect class="basic label-container" style="" data-id="abc" data-et="node" x="-95.3203125" y="-27" width="190.640625" height="54"></rect><g class="label" style="" transform="translate(-65.3203125, -12)"><rect></rect><foreignObject width="130.640625" height="24"><div xmlns="http://www.w3.org/1999/xhtml" style="display: table-cell; white-space: nowrap; line-height: 1.5; max-width: 200px; text-align: center;"><span class="nodeLabel "><p>DuckDuckGo News</p></span></div></foreignObject></g></g><g class="node default  " id="flowchart-RISK-59" transform="translate(1026.4453125, 537)"><rect class="basic label-container" style="" data-id="abc" data-et="node" x="-95.109375" y="-27" width="190.21875" height="54"></rect><g class="label" style="" transform="translate(-65.109375, -12)"><rect></rect><foreignObject width="130.21875" height="24"><div xmlns="http://www.w3.org/1999/xhtml" style="display: table-cell; white-space: nowrap; line-height: 1.5; max-width: 200px; text-align: center;"><span class="nodeLabel "><p>Risk Scoring Agent</p></span></div></foreignObject></g></g><g class="node default  " id="flowchart-FD-61" transform="translate(1457.796875, 485)"><rect class="basic label-container" style="" data-id="abc" data-et="node" x="-97.8203125" y="-27" width="195.640625" height="54"></rect><g class="label" style="" transform="translate(-67.8203125, -12)"><rect></rect><foreignObject width="135.640625" height="24"><div xmlns="http://www.w3.org/1999/xhtml" style="display: table-cell; white-space: nowrap; line-height: 1.5; max-width: 200px; text-align: center;"><span class="nodeLabel "><p>FD Processor Agent</p></span></div></foreignObject></g></g><g class="node default  " id="flowchart-REJ-63" transform="translate(1457.796875, 589)"><rect class="basic label-container" style="" data-id="abc" data-et="node" x="-117.1875" y="-27" width="234.375" height="54"></rect><g class="label" style="" transform="translate(-87.1875, -12)"><rect></rect><foreignObject width="174.375" height="24"><div xmlns="http://www.w3.org/1999/xhtml" style="display: table-cell; white-space: nowrap; line-height: 1.5; max-width: 200px; text-align: center;"><span class="nodeLabel "><p>Rejection Handler Agent</p></span></div></foreignObject></g></g><g class="node default  " id="flowchart-EMAIL1-65" transform="translate(1754.5546875, 485)"><rect class="basic label-container" style="" data-id="abc" data-et="node" x="-129.5703125" y="-27" width="259.140625" height="54"></rect><g class="label" style="" transform="translate(-99.5703125, -12)"><rect></rect><foreignObject width="199.140625" height="24"><div xmlns="http://www.w3.org/1999/xhtml" style="display: table-cell; white-space: nowrap; line-height: 1.5; max-width: 200px; text-align: center;"><span class="nodeLabel "><p>Success Email + PDF Invoice</p></span></div></foreignObject></g></g><g class="node default  " id="flowchart-EMAIL2-67" transform="translate(1754.5546875, 589)"><rect class="basic label-container" style="" data-id="abc" data-et="node" x="-86.25" y="-27" width="172.5" height="54"></rect><g class="label" style="" transform="translate(-56.25, -12)"><rect></rect><foreignObject width="112.5" height="24"><div xmlns="http://www.w3.org/1999/xhtml" style="display: table-cell; white-space: nowrap; line-height: 1.5; max-width: 200px; text-align: center;"><span class="nodeLabel "><p>Rejection Email</p></span></div></foreignObject></g></g></g></g></g></svg>